<?xml version="1.0" standalone="no"?>
<!DOCTYPE svg PUBLIC "-//W3C//DTD SVG 1.1//EN" "http://www.w3.org/Graphics/SVG/1.1/DTD/svg11.dtd" >
<!--
2013-9-30: Created.
-->
<svg>
<metadata>
Created by iconfont
</metadata>
<defs>

<font id="iconfont" horiz-adv-x="1024" >
  <font-face
    font-family="iconfont"
    font-weight="500"
    font-stretch="normal"
    units-per-em="1024"
    ascent="896"
    descent="-128"
  />
    <missing-glyph />
    
    <glyph glyph-name="x" unicode="x" horiz-adv-x="1001"
d="M281 543q-27 -1 -53 -1h-83q-18 0 -36.5 -6t-32.5 -18.5t-23 -32t-9 -45.5v-76h912v41q0 16 -0.5 30t-0.5 18q0 13 -5 29t-17 29.5t-31.5 22.5t-49.5 9h-133v-97h-438v97zM955 310v-52q0 -23 0.5 -52t0.5 -58t-10.5 -47.5t-26 -30t-33 -16t-31.5 -4.5q-14 -1 -29.5 -0.5
t-29.5 0.5h-32l-45 128h-439l-44 -128h-29h-34q-20 0 -45 1q-25 0 -41 9.5t-25.5 23t-13.5 29.5t-4 30v167h911zM163 247q-12 0 -21 -8.5t-9 -21.5t9 -21.5t21 -8.5q13 0 22 8.5t9 21.5t-9 21.5t-22 8.5zM316 123q-8 -26 -14 -48q-5 -19 -10.5 -37t-7.5 -25t-3 -15t1 -14.5
t9.5 -10.5t21.5 -4h37h67h81h80h64h36q23 0 34 12t2 38q-5 13 -9.5 30.5t-9.5 34.5q-5 19 -11 39h-368zM336 498v228q0 11 2.5 23t10 21.5t20.5 15.5t34 6h188q31 0 51.5 -14.5t20.5 -52.5v-227h-327z" />
    

    
    <glyph glyph-name="shopcarto" unicode="&#59119;" d="M338.944 9.472q19.456 0 36.864-7.168t30.208-19.968 20.48-30.208 7.68-36.864-7.68-36.864-20.48-30.208-30.208-20.48-36.864-7.68q-20.48 0-37.888 7.68t-30.208 20.48-20.48 30.208-7.68 36.864 7.68 36.864 20.48 30.208 30.208 19.968 37.888 7.168zM764.928 7.424q19.456 0 37.376-7.168t30.72-19.968 20.48-30.208 7.68-36.864-7.68-36.864-20.48-30.208-30.72-20.48-37.376-7.68-36.864 7.68-30.208 20.48-20.48 30.208-7.68 36.864 7.68 36.864 20.48 30.208 30.208 19.968 36.864 7.168zM936.96 589.056q28.672 0 44.544-7.68t22.528-18.944 6.144-24.064-3.584-22.016-13.312-37.888-22.016-62.976-23.552-68.096-18.944-53.248q-13.312-40.96-33.28-56.832t-49.664-15.872l-537.6 0 14.336-92.16 517.12 0q49.152 0 49.152-41.984 0-20.48-9.728-35.84t-38.4-14.336l-536.576 0q-20.48 0-34.304 9.216t-23.04 24.064-14.848 32.256-8.704 32.768q-1.024 6.144-5.632 29.696t-11.264 58.88-14.848 78.848-16.384 87.552q-19.456 103.424-44.032 230.4l-76.8 0q-15.36 0-25.6 7.68t-16.896 18.432-9.216 23.04-2.56 22.528q0 20.48 13.824 33.792t37.376 12.288l103.424 0q20.48 0 32.768-6.144t19.456-15.36 10.24-18.944 5.12-16.896q2.048-8.192 4.096-23.04t4.096-30.208q3.072-18.432 6.144-38.912l700.416 0zM899.072 497.92l-641.024 2.048 35.84-185.344 535.552-1.024z"  horiz-adv-x="1035" />

    
    <glyph glyph-name="search" unicode="&#59476;" d="M992.256 24.59648l-242.54464 206.29504c-25.06752 22.56896-51.89632 32.93184-73.54368 31.92832 57.26208 67.072 91.83232 154.07104 91.83232 249.18016 0 212.0704-171.9296 384-384 384s-384-171.9296-384-384 171.9296-384 384-384c95.08864 0 182.10816 34.59072 249.18016 91.8528-1.00352-21.66784 9.35936-48.47616 31.92832-73.54368l206.29504-242.54464c35.328-39.23968 93.02016-42.55744 128.22528-7.35232s31.88736 92.89728-7.35232 128.22528zM384 256c-141.39392 0-256 114.60608-256 256s114.60608 256 256 256 256-114.60608 256-256-114.60608-256-256-256z"  horiz-adv-x="1025" />

    
    <glyph glyph-name="home1" unicode="&#59067;" d="M720.428877-126.66666 613.646537-126.66666C602.48381-126.66666 593.462543-117.635703 593.462543-106.472976L593.462543 80.822472C593.462543 105.066521 573.724283 124.81447 549.451165 124.81447L474.54849 124.81447C450.285062 124.81447 430.546802 105.066521 430.546802 80.822472L430.546802-106.472976C430.546802-117.635703 421.525535-126.66666 410.362808-126.66666L303.144424-126.66666C256.603991-126.66666 218.745679-88.808348 218.745679-42.287294L218.745679 251.238171C194.162485 250.162596 154.453408 249.222679 154.453408 249.222679 148.523209 248.515318 143.116263 251.034684 139.075588 255.094738 104.773457 289.396869 104.57966 356.62517 138.687994 390.820712L449.6746 701.768559C482.833326 734.966045 540.701215 734.966045 573.898701 701.768559L884.856238 390.820712C919.197128 356.392613 919.449065 289.164312 885.379491 255.094738 881.338816 251.034684 875.980319 248.476559 870.05012 249.222679 869.904772 249.222679 830.147246 251.548247 804.808243 251.238171L804.808243-42.287294C804.808243-88.808348 766.94993-126.66666 720.428877-126.66666ZM633.840221-86.288982 720.428877-86.288982C744.701995-86.288982 764.430565-66.531342 764.430565-42.287294L764.430565 269.367913C764.430565 291.615849 788.044772 291.615849 807.036912 291.615849 824.798439 291.615849 848.596754 290.627482 861.959081 290.036401 875.16637 310.462641 873.199327 345.317094 856.280819 362.264673L545.352351 673.222209C527.406717 691.119395 496.166584 691.119395 478.22095 673.222209L167.253723 362.264673C150.529012 345.510892 148.978633 310.57892 162.457238 290.036401 175.712977 290.627482 199.210906 291.615849 216.759256 291.615849 235.625428 291.615849 259.123356 291.615849 259.123356 269.367913L259.123356-42.287294C259.123356-66.531342 278.880996-86.288982 303.144424-86.288982L390.169124-86.288982 390.169124 80.822472C390.169124 127.343526 428.027436 165.192148 474.54849 165.192148L549.451165 165.192148C595.981909 165.192148 633.840221 127.343526 633.840221 80.822472L633.840221-86.288982Z"  horiz-adv-x="1024" />

    
    <glyph glyph-name="box" unicode="&#59139;" d="M953.6 812 70.4 812C32 812 0 780 0 741.6l0-889.6C0-180 32-212 70.4-212l889.6 0c38.4 0 70.4 32 70.4 70.4L1030.4 741.6C1024 780 992 812 953.6 812zM960-141.6C960-148 960-148 960-141.6L70.4-148C64-148 64-148 64-141.6L64 741.6C64 748 64 748 70.4 748l889.6 0C960 748 960 748 960 741.6L960-141.6z"  horiz-adv-x="1031" />

    
    <glyph glyph-name="commoncollectn" unicode="&#58895;" d="M748.224 835.776c-100.416 0-188.032-54.656-236.224-136.064C463.808 781.12 376.192 835.776 275.712 835.776 123.392 835.776 0 710.656 0 556.224c0-319.552 512-624 512-624s512 304.448 512 624C1024 710.656 900.48 835.776 748.224 835.776L748.224 835.776z"  horiz-adv-x="1024" />

    
    <glyph glyph-name="home" unicode="&#58885;" d="M255.929904-61.049169c-30.287817 0-68.809155 18.195408-68.809155 69.612451L187.120748 352.83828l-49.754171 0c-10.916631 0-23.2444 7.278777-32.986275 19.370163-10.212596 12.679787-15.848966 29.113061-15.848966 46.136783l0 7.626701L492.145813 825.693748c4.460592 4.460592 10.916631 6.807033 19.019169 6.807033 9.153474 0 16.081257-2.346441 20.657482-6.927783 1.411139-1.407046 359.592868-355.578438 399.269519-395.959124l5.399987-13.147438c0 0-2.933819-30.990828-9.03784-41.08779-7.981788-13.382798-24.555256-20.778232-40.987506-20.778232L833.353962 354.600413l0.083911-348.503299c0 0 5.337565-67.146283-74.073042-67.146283L578.75538-61.049169c0 0 0.23536 340.872504 0 349.322967-0.116657 4.344958-4.461615 15.613606-9.389858 15.613606L456.481546 303.887404c-3.405563 0-10.332323-6.456039-10.332323-15.026228l0-349.910345L257.437234-61.049169C259.4511-60.933535 257.924327-61.049169 255.929904-61.049169M175.308725 409.952068l75.645864 0 0-374.231263c0-7.42204 13.302981-29.79663 39.494503-29.79663l1.639337 0 1.088798 0.11154 0.765433 0 90.108251 0L384.050909 320.883497c0 25.972535 33.124422 48.8905 56.80782 48.8905l140.883681 0c13.861706 0 39.387056-7.094582 47.681976-19.970844 6.435573-10.041704 8.948813-21.282722 9.166777-28.377304 0.215918-8.622378 0.10847-258.419608 0-315.282686l97.67867 0c37.012985 0 31.866778 25.103748 34.048467 32.086789l0.873903 371.530758c0 0 80.619132 0 86.551238 0 5.932106 0 7.807826 2.892887-12.828167 23.529903-20.637016 20.637016-286.857287 275.385001-331.273892 320.56704 0 0-329.694931-316.227198-340.907297-327.438541C161.52172 415.206746 172.689061 411.590382 175.308725 409.952068"  horiz-adv-x="1024" />

    
    <glyph glyph-name="fanhui" unicode="&#58914;" d="M762.154955 770.591235 341.700423 386.489256l420.454532-384.101979c14.718021-14.624085 14.718021-38.36319 0-53.000865-14.650867-14.664258-38.483908-14.664258-53.134775 0L261.515588 358.072123c-7.814702 7.814702-11.16583 18.203058-10.656375 28.417333-0.509455 10.214075 2.841673 20.57565 10.656375 28.417333l447.504592 408.685511c14.650867 14.664457 38.483908 14.664457 53.134974 0C776.872976 808.967816 776.872976 785.21532 762.154955 770.591235z"  horiz-adv-x="1024" />

    
    <glyph glyph-name="home2" unicode="&#58881;" d="M829.868263 429.240685 572.96272 696.415541c-15.971379 16.605077-37.316419 25.722543-60.185497 25.722543-22.870294 0-44.215335-9.117467-60.157522-25.722543L195.684966 429.240685c-26.514362-27.609042-23.101393-51.430491-18.708078-61.381131 3.124703-7.086227 13.65309-26.499766 44.041402-26.499766l37.647256 0 0-205.546815c0-46.662552 33.542206-90.603 81.227676-90.603l109.354866 0L449.248087 262.738667c0 23.331276-3.528518 36.321477 20.322123 36.321477l86.427405 0c23.849425 0 20.306311-12.991417 20.306311-36.321477l0-217.52991 109.354866 0c47.670874 0 81.214296 43.940448 81.214296 90.603L766.873088 341.359788l37.661851 0c30.388312 0 40.930079 19.413539 44.041402 26.499766C852.969656 377.81141 856.381408 401.632859 829.868263 429.240685L829.868263 429.240685zM804.533723 383.672812"  horiz-adv-x="1024" />

    
    <glyph glyph-name="close" unicode="&#58940;" d="M574.85863 384l298.588469 298.588469c17.359366 17.35732 17.359366 45.500287 0 62.859653-17.35732 17.359366-45.500287 17.359366-62.859653 0L511.998977 446.860676 213.410508 745.449145c-17.35732 17.359366-45.500287 17.359366-62.859653 0-17.35732-17.359366-17.35732-45.502333 0-62.859653l298.588469-298.588469L150.549831 85.411531c-17.35732-17.359366-17.35732-45.502333 0-62.859653 17.359366-17.359366 45.502333-17.359366 62.859653 0l298.588469 298.588469 298.588469-298.588469c17.359366-17.359366 45.502333-17.359366 62.859653 0 17.359366 17.35732 17.359366 45.500287 0 62.859653L574.85863 384z"  horiz-adv-x="1024" />

    
    <glyph glyph-name="list" unicode="&#58902;" d="M896 640l-288 0c-17.696 0-32 14.336-32 32s14.304 32 32 32l288 0c17.696 0 32-14.336 32-32S913.696 640 896 640zM896 480l-288 0c-17.696 0-32 14.336-32 32s14.304 32 32 32l288 0c17.696 0 32-14.336 32-32S913.696 480 896 480zM896 224l-288 0c-17.696 0-32 14.304-32 32s14.304 32 32 32l288 0c17.696 0 32-14.304 32-32S913.696 224 896 224zM896 64l-288 0c-17.696 0-32 14.304-32 32s14.304 32 32 32l288 0c17.696 0 32-14.304 32-32S913.696 64 896 64zM384 416 192 416c-52.928 0-96 43.072-96 96L96 704c0 52.928 43.072 96 96 96l192 0c52.928 0 96-43.072 96-96l0-192C480 459.072 436.928 416 384 416zM192 736C174.368 736 160 721.632 160 704l0-192c0-17.632 14.368-32 32-32l192 0c17.632 0 32 14.368 32 32L416 704c0 17.632-14.368 32-32 32L192 736zM384-32 192-32c-52.928 0-96 43.072-96 96l0 192c0 52.928 43.072 96 96 96l192 0c52.928 0 96-43.072 96-96l0-192C480 11.072 436.928-32 384-32zM192 288c-17.632 0-32-14.336-32-32l0-192c0-17.664 14.368-32 32-32l192 0c17.632 0 32 14.336 32 32l0 192c0 17.664-14.368 32-32 32L192 288z"  horiz-adv-x="1024" />

    
    <glyph glyph-name="store" unicode="&#59899;" d="M823.788607-45.583942 200.790584-45.583942c-37.116339 0-67.290569 30.17423-67.290569 67.290569L133.500015 213.083306c0 14.32117 11.588943 25.90909 25.883507 25.90909s25.882484-11.587919 25.882484-25.90909l0-191.377702c0-8.582469 6.942109-15.524578 15.524578-15.524578l622.998023 0c8.582469 0 15.524578 6.942109 15.524578 15.524578L839.313186 213.083306c0 14.32117 11.587919 25.90909 25.882484 25.90909s25.883507-11.587919 25.883507-25.90909l0-191.377702C891.079176-15.409712 860.90597-45.583942 823.788607-45.583942L823.788607-45.583942zM776.203846 498.795513 248.375346 498.795513c-14.294564 0-25.854854 11.587919-25.854854 25.869181 0 14.307867 11.56029 25.855878 25.854854 25.855878l527.829524 0c14.294564 0 25.856901-11.54801 25.856901-25.855878C802.060747 510.383432 790.49841 498.795513 776.203846 498.795513L776.203846 498.795513zM521.664615 295.748027c-53.570079 0-103.696734 29.982872-147.618059 61.427024-52.722782-36.172851-102.084003-54.484915-147.017378-54.484915-39.166021 0-74.123184 13.501502-103.941304 40.137139-25.062815 22.424732-40.559764 49.018414-49.142234 67.399039-9.429767 20.158109-12.243859 55.70265-6.42227 80.94352 1.310855 5.684466 10.249435 35.243689 19.323091 57.738006 17.054421 42.281989 57.778938 123.525338 87.488587 180.239014 23.915689 45.698808 53.242622 55.292304 73.631998 55.292304l531.955494 0c20.252253 0 49.03274-9.771551 70.979588-56.221466 8.308223-17.588587 20.85498-43.047422 34.137495-70.022797 25.117051-51.02921 53.597709-108.903316 67.044976-140.703579 6.969739-16.508999 7.516184-34.246989 7.761778-42.774199 0.055259-0.915859 0.055259-1.680269 0.109494-2.281973 0.273223-4.76963 1.202385-29.750581-10.113335-52.203966-19.97903-39.740096-41.871643-68.546166-66.935482-88.115873-24.843828-19.391652-52.667523-29.230742-82.733283-29.230742l0 0c-43.128263 0.014326-89.484034 19.213597-148.192134 61.809741-17.600867-20.402679-35.995819-36.364209-54.880935-47.584762C573.266877 302.93573 547.90321 295.748027 521.664615 295.748027L521.664615 295.748027zM374.237915 414.968315c5.411243 0 10.82351-1.693572 15.387455-5.082762 40.752146-30.201859 87.926562-62.412468 132.039245-62.412468 36.678364 0 71.00824 22.358217 104.953354 68.370157 4.154623 5.603625 10.384511 9.293667 17.301038 10.262738 6.885827 0.956791 13.910824-0.929162 19.404955-5.206582 58.135048-45.206598 101.619422-66.264193 136.848785-66.264193l0 0c39.522132 0 73.358775 29.065989 103.45114 88.868003 4.071735 8.06263 5.028527 20.075221 4.673439 25.746384-0.081864 0.9967-0.109494 2.309602-0.164752 3.89368-0.162706 5.371334-0.491187 16.60519-3.716648 24.203238-12.846586 30.446429-40.996716 87.583754-65.813938 137.996934-13.365402 27.167756-25.991977 52.804646-34.465976 70.761624-4.701069 9.920954-14.075577 26.580379-24.215518 26.580379l-531.955494 0c-11.643178 0-22.412452-17.246803-27.79709-27.522844-29.16218-55.67502-68.985164-135.086651-85.35704-175.646416-7.953136-19.761066-15.879666-45.944402-16.891715-50.099025-3.607154-15.620769-0.737804-39.494503 2.898003-47.297212 10.904351-23.355941 43.101657-77.69043 106.209974-77.69043 37.96466 0 82.296331 18.653849 131.767046 55.415101C363.359146 413.246091 368.799042 414.968315 374.237915 414.968315L374.237915 414.968315z"  horiz-adv-x="1024" />

    
    <glyph glyph-name="navigationbarsift" unicode="&#58943;" d="M1013.499345 384 1036.772073 384 1036.772073 430.545455 1013.499345 430.545455 771.7888 430.545455 748.516073 430.545455 748.516073 384 771.7888 384ZM1013.499345 197.818182 1036.772073 197.818182 1036.772073 244.363636 1013.499345 244.363636 771.7888 244.363636 748.516073 244.363636 748.516073 197.818182 771.7888 197.818182ZM1013.499345 11.636364 1036.772073 11.636364 1036.772073 58.181818 1013.499345 58.181818 771.7888 58.181818 748.516073 58.181818 748.516073 11.636364 771.7888 11.636364ZM603.965752 455.529503 596.512945 438.460527 887.024975 707.713758C921.251766 739.435938 905.796687 779.686683 859.237297 779.686683L70.994691 779.686683C24.230957 779.686683 9.049863 739.371353 43.041696 707.61656L327.001991 442.343999 319.616445 459.350389 319.616455-76.769424 366.161909-76.769424 366.161899 459.35039C366.161899 465.797462 363.487508 471.95567 358.776353 476.356779L74.816059 741.62934C71.836988 744.412355 72.076079 743.888538 70.184694 738.865724 68.184938 733.555117 67.215606 733.141228 70.994691 733.141228L859.237297 733.141228C862.959421 733.141228 862.039491 733.531199 860.013675 738.80718 858.043257 743.938878 858.341986 744.59219 855.385135 741.851711L564.873104 472.59848C560.121176 468.194283 557.420297 462.00853 557.420297 455.529503L557.420297 169.74497 603.965752 169.74497 603.965752 455.529503Z"  horiz-adv-x="1037" />

    
    <glyph glyph-name="box1" unicode="&#58971;" d="M348.254737 418.033838H129.873646a129.743869 129.743869 0 0 0-129.678982 129.678981V766.126354A129.776313 129.776313 0 0 0 129.873646 895.805336h218.478423a129.841201 129.841201 0 0 0 129.678981-129.678982v-218.510867a129.873646 129.873646 0 0 0-129.776313-129.581649zM129.873646 827.542995A61.513972 61.513972 0 0 1 68.457005 766.126354v-218.510867c0-33.80673 27.512578-61.449084 61.416641-61.449084h218.478423a61.513972 61.513972 0 0 1 61.41664 61.449084V766.126354a61.513972 61.513972 0 0 1-61.41664 61.416641H129.873646z m764.350041-409.509157h-218.381091a129.808757 129.808757 0 0 0-129.678982 129.678981V766.126354A129.841201 129.841201 0 0 0 675.842596 895.805336h218.510867a129.808757 129.808757 0 0 0 129.646537-129.678982v-218.510867a129.873646 129.873646 0 0 0-129.776313-129.581649zM675.842596 827.542995a61.513972 61.513972 0 0 1-61.416641-61.416641v-218.510867c0-33.80673 27.512578-61.449084 61.416641-61.449084h218.510867a61.513972 61.513972 0 0 1 61.41664 61.449084V766.126354a61.513972 61.513972 0 0 1-61.41664 61.416641h-218.510867zM348.254737-128H129.873646a129.808757 129.808757 0 0 0-129.678982 129.678981v218.413535a129.808757 129.808757 0 0 0 129.678982 129.678981h218.478423a129.808757 129.808757 0 0 0 129.678981-129.678981v-218.510867a129.873646 129.873646 0 0 0-129.776313-129.581649zM129.873646 281.509157a61.513972 61.513972 0 0 1-61.416641-61.416641v-218.510867c0-33.80673 27.512578-61.449084 61.416641-61.449085h218.478423a61.513972 61.513972 0 0 1 61.41664 61.449085v218.510867a61.513972 61.513972 0 0 1-61.41664 61.416641H129.873646z m764.350041-409.509157h-218.381091a129.808757 129.808757 0 0 0-129.678982 129.678981v218.413535a129.841201 129.841201 0 0 0 129.678982 129.678981h218.510867a129.776313 129.776313 0 0 0 129.646537-129.678981v-218.510867a129.873646 129.873646 0 0 0-129.776313-129.581649zM675.842596 281.509157a61.513972 61.513972 0 0 1-61.416641-61.416641v-218.510867c0-33.80673 27.512578-61.449084 61.416641-61.449085h218.510867a61.513972 61.513972 0 0 1 61.41664 61.449085v218.510867a61.513972 61.513972 0 0 1-61.41664 61.416641h-218.510867z"  horiz-adv-x="1024" />

    
    <glyph glyph-name="service" unicode="&#58931;" d="M739.814054 456.545246c-16.546861 0-32.712029 1.14815-48.349171 3.350305-63.222927-78.251202-166.540014-64.874543-166.540014-64.874543 70.424956 32.635281 72.094992 90.224908 59.57177 97.41568-55.279001 31.80231-86.709851 74.53967-86.70985 128.767735 0 95.78453 106.223277 169.631422 242.028288 169.631422 135.810129 0 218.583321-73.846892 218.583321-169.631422-0.001023-95.77225-82.774215-164.659177-218.584344-164.659177z m-306.093397-177.686888s-3.303232-20.056801-0.657985-18.752086c2.64013 1.288343-9.340739-87.672782 71.242577-99.318006 80.579223-11.639085 140.333142-60.364833 155.521053-74.594929 15.19405-14.220886 23.759123-114.414843 23.759123-114.414843H64.40638s-4.747117 81.103156 21.584598 114.414843c15.189957 14.230096 81.901335 62.955844 162.483628 74.594929 80.580247 11.645225 60.042491 99.04683 62.684668 97.747231 2.6432-1.291412-0.661056 18.758226-0.661056 18.758226s-62.204737 55.172577-61.544704 104.957447c0.661056 49.79408 0 82.428338 0 82.428337s9.449209 128.2305 91.830474 128.2305L404.567687 560.99718c74.026994 0 91.183745-96.317673 91.183746-96.317673v-89.691765s-15.619746-70.688969-62.030776-96.129384z"  horiz-adv-x="1024" />

    
    <glyph glyph-name="service1" unicode="&#59494;" d="M509.938351 282.81448c-56.228275 2.292881-108.182848 26.500628-146.326932 67.997578l-12.709579-21.623269c41.290273-44.872324 97.455112-71.039405 158.307005-73.621838 3.291476-0.083898 6.543049-0.166774 9.791553-0.166773 57.268819 0 111.661561 21.207869 154.0773 60.206285l-11.645503 22.664836c-41.497973-38.163524-95.288079-57.870432-151.493844-55.456819zM511.979537 896c-282.738511 0-511.979537-229.242049-511.979537-512.021486s229.240003-511.978514 511.979537-511.978514c282.821386 0 512.064458 229.199077 512.064459 511.978514S794.800923 896 511.979537 896z m161.034725-694.097307L486.480573 64.157949l17.748597 86.204546C354.986258 154.486816 235.240782 276.81677 235.240782 427.019398c0 152.868959 123.932208 276.779681 276.780704 276.779681 152.847473 0 276.759218-123.910722 276.759218-276.779681 0-92.788522-45.664243-174.86977-115.766442-225.116705z"  horiz-adv-x="1024" />

    
    <glyph glyph-name="xinchangtai" unicode="&#58907;" d="M512-51.2c-7.68 0-17.92 2.56-25.6 7.68-33.28 15.36-460.8 235.52-460.8 573.44 0 158.72 130.56 289.28 289.28 289.28 71.68 0 143.36-28.16 194.56-74.24 53.76 48.64 122.88 74.24 194.56 74.24h2.56c158.72 0 289.28-130.56 289.28-289.28 0-335.36-427.52-558.080-460.8-573.44-5.12-5.12-15.36-7.68-23.040-7.68zM314.88 768c-130.56 0-238.080-107.52-238.080-238.080 0-314.88 427.52-527.36 432.64-527.36 0 0 2.56 0 2.56-2.56 0 0 2.56 0 2.56 2.56 5.12 2.56 432.64 212.48 432.64 527.36 0 130.56-107.52 238.080-238.080 238.080-66.56 0-130.56-28.16-176.64-76.8-5.12-5.12-12.8-7.68-17.92-7.68-7.68 0-12.8 2.56-17.92 7.68-48.64 48.64-112.64 76.8-181.76 76.8z"  horiz-adv-x="1024" />

    
    <glyph glyph-name="class" unicode="&#58886;" d="M416.679 349.325h-287.074c-31.574 0-57.436-25.839-57.436-57.436v-287.074c0-31.574 25.839-57.436 57.436-57.436h287.074c31.574 0 57.436 25.839 57.436 57.436v287.074c0 31.574-25.839 57.436-57.436 57.436zM416.679 33.546c0-15.775-12.932-28.715-28.715-28.715h-229.673c-15.775 0-28.715 12.932-28.715 28.715v229.673c0 15.775 12.932 28.715 28.715 28.715h229.673c15.775 0 28.715-12.932 28.715-28.715v-229.673zM904.716 349.325h-287.074c-31.574 0-57.436-25.839-57.436-57.436v-287.074c0-31.574 25.839-57.436 57.436-57.436h287.074c31.574 0 57.436 25.839 57.436 57.436v287.074c0 31.574-25.839 57.436-57.436 57.436zM904.716 33.546c0-15.775-12.932-28.715-28.715-28.715h-229.673c-15.775 0-28.715 12.932-28.715 28.715v229.673c0 15.775 12.932 28.715 28.715 28.715h229.673c15.775 0 28.715-12.932 28.715-28.715v-229.673zM904.716 837.351h-287.074c-31.574 0-57.436-25.839-57.436-57.436v-287.074c0-31.574 25.839-57.436 57.436-57.436h287.074c31.574 0 57.436 25.839 57.436 57.436v287.074c0 31.574-25.839 57.436-57.436 57.436zM904.716 521.578c0-15.775-12.932-28.715-28.715-28.715h-229.673c-15.775 0-28.715 12.932-28.715 28.715v229.673c0 15.775 12.932 28.715 28.715 28.715h229.673c15.775 0 28.715-12.932 28.715-28.715v-229.673zM416.679 837.351h-287.074c-31.574 0-57.436-25.839-57.436-57.436v-287.074c0-31.574 25.839-57.436 57.436-57.436h287.074c31.574 0 57.436 25.839 57.436 57.436v287.074c0 31.574-25.839 57.436-57.436 57.436zM416.679 521.578c0-15.775-12.932-28.715-28.715-28.715h-229.673c-15.775 0-28.715 12.932-28.715 28.715v229.673c0 15.775 12.932 28.715 28.715 28.715h229.673c15.775 0 28.715-12.932 28.715-28.715v-229.673z"  horiz-adv-x="1024" />

    
    <glyph glyph-name="yonghu" unicode="&#58880;" d="M125.857-92.497c-0.569 7.753-0.862 15.569-0.862 23.449 0 193.216 173.61 350.407 387.005 350.407 213.394 0 387.006-157.193 387.006-350.407 0-7.879-0.294-15.697-0.862-23.449h65.859c0.466 7.781 0.707 15.598 0.707 23.449 0 56.627-12.133 111.545-36.068 163.225-23.002 49.668-55.867 94.215-97.678 132.404-66.23 60.49-149.269 99.885-239.367 114.507 107.486 34.097 185.644 135.338 185.644 254.608 0 147.165-118.987 266.894-265.241 266.894-146.254 0-265.241-119.728-265.241-266.894 0-119.271 78.159-220.511 185.644-254.608-90.098-14.622-173.138-54.017-239.367-114.507-41.812-38.188-74.675-82.737-97.678-132.404-23.933-51.68-36.068-106.597-36.068-163.225 0-7.851 0.242-15.668 0.707-23.449h65.86zM314.422 595.696c0 109.623 88.633 198.807 197.578 198.807s197.578-89.184 197.578-198.807c0-109.625-88.631-198.809-197.578-198.809s-197.578 89.184-197.578 198.809z"  horiz-adv-x="1024" />

    
    <glyph glyph-name="store-product" unicode="&#58958;" d="M919.104 896H104.896C46.784 896 0 849.216 0 791.104v-814.272C0-81.216 46.784-128 104.896-128h814.272c58.048 0 104.832 46.784 104.832 104.896V791.104C1024 849.216 976.576 896 919.104 896z m-93.056-290.944l-2.368-1.216v-2.368C801.216 447.424 667.264 331.264 512 331.264S222.208 447.424 200.256 601.472l-0.512 2.368-2.432 1.216a48.768 48.768 0 0 0-24.896 41.472c0 27.264 21.952 49.216 49.216 49.216s49.216-21.952 49.216-49.216a48.448 48.448 0 0 0-18.368-37.312l-2.432-1.792 0.576-2.944A263.424 263.424 0 0 1 512 381.632a263.36 263.36 0 0 1 261.312 222.784l0.64 2.944-2.368 1.792a48.384 48.384 0 0 0-18.368 37.312c0 27.264 21.952 49.216 49.216 49.216s49.216-21.952 49.216-49.216a51.712 51.712 0 0 0-25.6-41.408z"  horiz-adv-x="1024" />

    


  </font>
</defs>
</svg>
